<svg preserveAspectRatio="none" width="100%" height="100%" overflow="visible" style="display: block;" viewBox="0 0 127.968 152.215" fill="none" xmlns="http://www.w3.org/2000/svg">
<g id="Vector" opacity="0.5" style="mix-blend-mode:plus-lighter">
<path d="M127.808 39.1799C127.626 35.1755 127.626 31.353 127.626 27.5306C127.626 24.4362 125.262 22.07 122.171 22.07C99.4428 22.07 82.1695 15.5172 67.8053 1.50167C65.6234 -0.500556 62.3505 -0.500556 60.1686 1.50167C45.8044 15.5172 28.5311 22.07 5.80294 22.07C2.71191 22.07 0.348187 24.4362 0.348187 27.5306C0.348187 31.353 0.348187 35.1755 0.166362 39.1799C-0.560938 77.4042 -1.65189 129.826 62.1687 151.851L63.987 152.215L65.8052 151.851C129.444 129.826 128.535 77.5862 127.808 39.1799Z" fill="url(#paint0_linear_0_11)"/>
<path d="M127.808 39.1799C127.626 35.1755 127.626 31.353 127.626 27.5306C127.626 24.4362 125.262 22.07 122.171 22.07C99.4428 22.07 82.1695 15.5172 67.8053 1.50167C65.6234 -0.500556 62.3505 -0.500556 60.1686 1.50167C45.8044 15.5172 28.5311 22.07 5.80294 22.07C2.71191 22.07 0.348187 24.4362 0.348187 27.5306C0.348187 31.353 0.348187 35.1755 0.166362 39.1799C-0.560938 77.4042 -1.65189 129.826 62.1687 151.851L63.987 152.215L65.8052 151.851C129.444 129.826 128.535 77.5862 127.808 39.1799Z" fill="url(#paint1_linear_0_11)"/>
</g>
<defs>
<linearGradient id="paint0_linear_0_11" x1="2.48959e-08" y1="76.1073" x2="127.968" y2="76.1073" gradientUnits="userSpaceOnUse">
<stop stop-color="#51DAFF"/>
<stop offset="1" stop-color="#1F4C7E"/>
</linearGradient>
<linearGradient id="paint1_linear_0_11" x1="63.984" y1="7.08804e-08" x2="63.984" y2="152.215" gradientUnits="userSpaceOnUse">
<stop stop-color="#6DD7F4"/>
<stop offset="1" stop-color="#1F4C7E"/>
</linearGradient>
</defs>
</svg>
