<svg preserveAspectRatio="none" width="100%" height="100%" overflow="visible" style="display: block;" viewBox="0 0 171.073 195.32" fill="none" xmlns="http://www.w3.org/2000/svg">
<g id="Vector" filter="url(#filter0_d_0_14)" style="mix-blend-mode:overlay">
<path d="M138.584 39.1799C138.402 35.1755 138.402 31.353 138.402 27.5306C138.402 24.4362 136.038 22.07 132.947 22.07C110.219 22.07 92.9457 15.5172 78.5815 1.50167C76.3996 -0.500556 73.1268 -0.500556 70.9449 1.50167C56.5807 15.5172 39.3073 22.07 16.5792 22.07C13.4882 22.07 11.1244 24.4362 11.1244 27.5306C11.1244 31.353 11.1244 35.1755 10.9426 39.1799C10.2153 77.4042 9.12436 129.826 72.945 151.851L74.7632 152.215L76.5815 151.851C140.22 129.826 139.311 77.5862 138.584 39.1799Z" fill="url(#paint0_linear_0_14)"/>
<path d="M138.584 39.1799C138.402 35.1755 138.402 31.353 138.402 27.5306C138.402 24.4362 136.038 22.07 132.947 22.07C110.219 22.07 92.9457 15.5172 78.5815 1.50167C76.3996 -0.500556 73.1268 -0.500556 70.9449 1.50167C56.5807 15.5172 39.3073 22.07 16.5792 22.07C13.4882 22.07 11.1244 24.4362 11.1244 27.5306C11.1244 31.353 11.1244 35.1755 10.9426 39.1799C10.2153 77.4042 9.12436 129.826 72.945 151.851L74.7632 152.215L76.5815 151.851C140.22 129.826 139.311 77.5862 138.584 39.1799Z" fill="url(#paint1_linear_0_14)"/>
</g>
<defs>
<filter id="filter0_d_0_14" x="-2.48988e-08" y="0" width="171.073" height="195.32" filterUnits="userSpaceOnUse" color-interpolation-filters="sRGB">
<feFlood flood-opacity="0" result="BackgroundImageFix"/>
<feColorMatrix in="SourceAlpha" type="matrix" values="0 0 0 0 0 0 0 0 0 0 0 0 0 0 0 0 0 0 127 0" result="hardAlpha"/>
<feOffset dx="10.7763" dy="21.5525"/>
<feGaussianBlur stdDeviation="10.7763"/>
<feComposite in2="hardAlpha" operator="out"/>
<feColorMatrix type="matrix" values="0 0 0 0 0 0 0 0 0 0 0 0 0 0 0 0 0 0 0.3 0"/>
<feBlend mode="normal" in2="BackgroundImageFix" result="effect1_dropShadow_0_14"/>
<feBlend mode="normal" in="SourceGraphic" in2="effect1_dropShadow_0_14" result="shape"/>
</filter>
<linearGradient id="paint0_linear_0_14" x1="10.7763" y1="76.1073" x2="138.744" y2="76.1073" gradientUnits="userSpaceOnUse">
<stop stop-color="#51DAFF"/>
<stop offset="1" stop-color="#1F4C7E"/>
</linearGradient>
<linearGradient id="paint1_linear_0_14" x1="74.7603" y1="7.08804e-08" x2="74.7603" y2="152.215" gradientUnits="userSpaceOnUse">
<stop stop-color="#6DD7F4"/>
<stop offset="1" stop-color="#1F4C7E"/>
</linearGradient>
</defs>
</svg>
