<svg preserveAspectRatio="none" width="100%" height="100%" overflow="visible" style="display: block;" viewBox="0 0 127.968 152.215" fill="none" xmlns="http://www.w3.org/2000/svg">
<g id="Vector" filter="url(#filter0_ii_0_16)">
<path d="M127.808 39.1799C127.626 35.1755 127.626 31.353 127.626 27.5306C127.626 24.4362 125.262 22.07 122.171 22.07C99.4428 22.07 82.1695 15.5172 67.8053 1.50167C65.6234 -0.500556 62.3505 -0.500556 60.1686 1.50167C45.8044 15.5172 28.5311 22.07 5.80294 22.07C2.71191 22.07 0.348187 24.4362 0.348187 27.5306C0.348187 31.353 0.348187 35.1755 0.166362 39.1799C-0.560938 77.4042 -1.65189 129.826 62.1687 151.851L63.987 152.215L65.8052 151.851C129.444 129.826 128.535 77.5862 127.808 39.1799Z" fill="var(--fill-0, white)"/>
</g>
<defs>
<filter id="filter0_ii_0_16" x="0" y="-2.69406" width="127.968" height="157.603" filterUnits="userSpaceOnUse" color-interpolation-filters="sRGB">
<feFlood flood-opacity="0" result="BackgroundImageFix"/>
<feBlend mode="normal" in="SourceGraphic" in2="BackgroundImageFix" result="shape"/>
<feColorMatrix in="SourceAlpha" type="matrix" values="0 0 0 0 0 0 0 0 0 0 0 0 0 0 0 0 0 0 127 0" result="hardAlpha"/>
<feOffset dy="2.69406"/>
<feGaussianBlur stdDeviation="1.34703"/>
<feComposite in2="hardAlpha" operator="arithmetic" k2="-1" k3="1"/>
<feColorMatrix type="matrix" values="0 0 0 0 0.576471 0 0 0 0 0.937255 0 0 0 0 0.996078 0 0 0 1 0"/>
<feBlend mode="normal" in2="shape" result="effect1_innerShadow_0_16"/>
<feColorMatrix in="SourceAlpha" type="matrix" values="0 0 0 0 0 0 0 0 0 0 0 0 0 0 0 0 0 0 127 0" result="hardAlpha"/>
<feOffset dy="-2.69406"/>
<feGaussianBlur stdDeviation="10.7763"/>
<feComposite in2="hardAlpha" operator="arithmetic" k2="-1" k3="1"/>
<feColorMatrix type="matrix" values="0 0 0 0 0.576471 0 0 0 0 0.937255 0 0 0 0 0.996078 0 0 0 0.75 0"/>
<feBlend mode="normal" in2="effect1_innerShadow_0_16" result="effect2_innerShadow_0_16"/>
</filter>
</defs>
</svg>
