<svg preserveAspectRatio="none" width="100%" height="100%" overflow="visible" style="display: block;" viewBox="0 0 158.967 184.871" fill="none" xmlns="http://www.w3.org/2000/svg">
<g id="Vector" filter="url(#filter0_i_0_6)">
<path d="M70.2121 11.7396C75.3888 6.93868 83.2513 6.86409 88.5119 11.515L88.76 11.7396L88.8508 11.8245L88.9397 11.9115C101.449 24.2467 116.408 30.1516 137.058 30.1517C144.668 30.1517 150.537 36.2259 150.537 43.6947C150.537 47.0601 150.538 50.272 150.653 53.5648L150.709 54.9818L150.714 55.0872L150.716 55.1927C151.071 74.1501 151.593 98.342 143.432 120.605C135.035 143.512 117.698 163.841 83.9543 175.644L83.4309 175.826L82.8889 175.937L81.0891 176.301L79.4865 176.625L77.884 176.301L76.0842 175.937L75.5451 175.827L75.0256 175.646C41.1838 163.843 23.8429 143.461 15.4699 120.526C7.33444 98.2406 7.90211 74.045 8.25706 55.1917L8.25901 55.0872L8.26389 54.9818C8.4344 51.1866 8.43577 47.5409 8.43577 43.6947C8.43594 36.2259 14.3047 30.1517 21.9153 30.1517L22.8791 30.1478C43.0318 29.9659 57.7198 24.054 70.0334 11.9115L70.1213 11.8245L70.2121 11.7396Z" stroke="url(#paint0_linear_0_6)" stroke-width="16.1644"/>
<path d="M70.2121 11.7396C75.3888 6.93868 83.2513 6.86409 88.5119 11.515L88.76 11.7396L88.8508 11.8245L88.9397 11.9115C101.449 24.2467 116.408 30.1516 137.058 30.1517C144.668 30.1517 150.537 36.2259 150.537 43.6947C150.537 47.0601 150.538 50.272 150.653 53.5648L150.709 54.9818L150.714 55.0872L150.716 55.1927C151.071 74.1501 151.593 98.342 143.432 120.605C135.035 143.512 117.698 163.841 83.9543 175.644L83.4309 175.826L82.8889 175.937L81.0891 176.301L79.4865 176.625L77.884 176.301L76.0842 175.937L75.5451 175.827L75.0256 175.646C41.1838 163.843 23.8429 143.461 15.4699 120.526C7.33444 98.2406 7.90211 74.045 8.25706 55.1917L8.25901 55.0872L8.26389 54.9818C8.4344 51.1866 8.43577 47.5409 8.43577 43.6947C8.43594 36.2259 14.3047 30.1517 21.9153 30.1517L22.8791 30.1478C43.0318 29.9659 57.7198 24.054 70.0334 11.9115L70.1213 11.8245L70.2121 11.7396Z" stroke="url(#paint1_linear_0_6)" stroke-width="16.1644"/>
</g>
<defs>
<filter id="filter0_i_0_6" x="0" y="0" width="158.967" height="187.565" filterUnits="userSpaceOnUse" color-interpolation-filters="sRGB">
<feFlood flood-opacity="0" result="BackgroundImageFix"/>
<feBlend mode="normal" in="SourceGraphic" in2="BackgroundImageFix" result="shape"/>
<feColorMatrix in="SourceAlpha" type="matrix" values="0 0 0 0 0 0 0 0 0 0 0 0 0 0 0 0 0 0 127 0" result="hardAlpha"/>
<feOffset dy="2.69406"/>
<feGaussianBlur stdDeviation="2.69406"/>
<feComposite in2="hardAlpha" operator="arithmetic" k2="-1" k3="1"/>
<feColorMatrix type="matrix" values="0 0 0 0 0.47451 0 0 0 0 0.898039 0 0 0 0 0.945098 0 0 0 1 0"/>
<feBlend mode="normal" in2="shape" result="effect1_innerShadow_0_6"/>
</filter>
<linearGradient id="paint0_linear_0_6" x1="147.991" y1="0.632237" x2="8.01299" y2="9.11837" gradientUnits="userSpaceOnUse">
<stop stop-color="#51DAFF"/>
<stop offset="1" stop-color="#1F4C7E"/>
</linearGradient>
<linearGradient id="paint1_linear_0_6" x1="79.4836" y1="16.1644" x2="79.4836" y2="168.379" gradientUnits="userSpaceOnUse">
<stop stop-color="#6DD7F4"/>
<stop offset="1" stop-color="#1F4C7E"/>
</linearGradient>
</defs>
</svg>
