<svg width="1440" height="1200" viewBox="0 0 1440 1200" fill="none" xmlns="http://www.w3.org/2000/svg">
  <defs>
    <!-- Dot grid pattern matching site background -->
    <pattern id="dots" width="28" height="28" patternUnits="userSpaceOnUse">
      <circle cx="14" cy="14" r="1.5" fill="rgba(240,240,243,0.07)"/>
    </pattern>

    <!-- Column fill -->
    <pattern id="col-stripe" width="1" height="1" patternUnits="objectBoundingBox">
      <rect width="1" height="1" fill="rgba(45,226,210,0.06)"/>
    </pattern>
  </defs>

  <!-- ═══════════════════════════════════════════════════ -->
  <!-- SECTION 1: Layout Grid — 1440px Desktop             -->
  <!-- ═══════════════════════════════════════════════════ -->

  <!-- Background -->
  <rect width="1440" height="900" fill="#0B0B0D"/>
  <!-- Dot grid -->
  <rect width="1440" height="900" fill="url(#dots)"/>

  <!-- Section label -->
  <text x="64" y="44" font-family="'Poppins', system-ui, sans-serif" font-size="11" font-weight="600" letter-spacing="0.12em" text-transform="uppercase" fill="rgba(240,240,243,0.35)" text-anchor="start">LAYOUT GRID — 1440px · 12 COL · 24px GUTTER · 64px MARGIN</text>

  <!-- ── Margin zones ── -->
  <rect x="0" y="56" width="64" height="820" fill="rgba(255,107,107,0.04)"/>
  <rect x="1376" y="56" width="64" height="820" fill="rgba(255,107,107,0.04)"/>
  <!-- Margin border lines -->
  <line x1="64" y1="56" x2="64" y2="876" stroke="rgba(255,107,107,0.25)" stroke-width="1" stroke-dasharray="4 4"/>
  <line x1="1376" y1="56" x2="1376" y2="876" stroke="rgba(255,107,107,0.25)" stroke-width="1" stroke-dasharray="4 4"/>

  <!-- ── 12 Columns (colW≈87.33, gutter=24, margin=64) ── -->
  <!-- Col 1 --> <rect x="64"       y="56" width="87.33" height="820" fill="rgba(45,226,210,0.055)"/>
  <!-- Col 2 --> <rect x="175.33"   y="56" width="87.33" height="820" fill="rgba(45,226,210,0.055)"/>
  <!-- Col 3 --> <rect x="286.67"   y="56" width="87.33" height="820" fill="rgba(45,226,210,0.055)"/>
  <!-- Col 4 --> <rect x="398"      y="56" width="87.33" height="820" fill="rgba(45,226,210,0.055)"/>
  <!-- Col 5 --> <rect x="509.33"   y="56" width="87.33" height="820" fill="rgba(45,226,210,0.055)"/>
  <!-- Col 6 --> <rect x="620.67"   y="56" width="87.33" height="820" fill="rgba(45,226,210,0.055)"/>
  <!-- Col 7 --> <rect x="732"      y="56" width="87.33" height="820" fill="rgba(45,226,210,0.055)"/>
  <!-- Col 8 --> <rect x="843.33"   y="56" width="87.33" height="820" fill="rgba(45,226,210,0.055)"/>
  <!-- Col 9 --> <rect x="954.67"   y="56" width="87.33" height="820" fill="rgba(45,226,210,0.055)"/>
  <!-- Col 10--> <rect x="1066"     y="56" width="87.33" height="820" fill="rgba(45,226,210,0.055)"/>
  <!-- Col 11--> <rect x="1177.33"  y="56" width="87.33" height="820" fill="rgba(45,226,210,0.055)"/>
  <!-- Col 12--> <rect x="1288.67"  y="56" width="87.33" height="820" fill="rgba(45,226,210,0.055)"/>

  <!-- Column top labels -->
  <text x="107.66"  y="76" font-family="system-ui,sans-serif" font-size="9" fill="rgba(45,226,210,0.5)" text-anchor="middle">1</text>
  <text x="218.99"  y="76" font-family="system-ui,sans-serif" font-size="9" fill="rgba(45,226,210,0.5)" text-anchor="middle">2</text>
  <text x="330.33"  y="76" font-family="system-ui,sans-serif" font-size="9" fill="rgba(45,226,210,0.5)" text-anchor="middle">3</text>
  <text x="441.66"  y="76" font-family="system-ui,sans-serif" font-size="9" fill="rgba(45,226,210,0.5)" text-anchor="middle">4</text>
  <text x="553"     y="76" font-family="system-ui,sans-serif" font-size="9" fill="rgba(45,226,210,0.5)" text-anchor="middle">5</text>
  <text x="664.33"  y="76" font-family="system-ui,sans-serif" font-size="9" fill="rgba(45,226,210,0.5)" text-anchor="middle">6</text>
  <text x="775.66"  y="76" font-family="system-ui,sans-serif" font-size="9" fill="rgba(45,226,210,0.5)" text-anchor="middle">7</text>
  <text x="887"     y="76" font-family="system-ui,sans-serif" font-size="9" fill="rgba(45,226,210,0.5)" text-anchor="middle">8</text>
  <text x="998.33"  y="76" font-family="system-ui,sans-serif" font-size="9" fill="rgba(45,226,210,0.5)" text-anchor="middle">9</text>
  <text x="1109.66" y="76" font-family="system-ui,sans-serif" font-size="9" fill="rgba(45,226,210,0.5)" text-anchor="middle">10</text>
  <text x="1221"    y="76" font-family="system-ui,sans-serif" font-size="9" fill="rgba(45,226,210,0.5)" text-anchor="middle">11</text>
  <text x="1332.33" y="76" font-family="system-ui,sans-serif" font-size="9" fill="rgba(45,226,210,0.5)" text-anchor="middle">12</text>

  <!-- Dimension callouts at bottom -->
  <!-- Margin callout left -->
  <line x1="0" y1="888" x2="64" y2="888" stroke="rgba(255,107,107,0.5)" stroke-width="1"/>
  <line x1="0" y1="884" x2="0" y2="892" stroke="rgba(255,107,107,0.5)" stroke-width="1"/>
  <line x1="64" y1="884" x2="64" y2="892" stroke="rgba(255,107,107,0.5)" stroke-width="1"/>
  <text x="32" y="900" font-family="system-ui,sans-serif" font-size="9" fill="rgba(255,107,107,0.7)" text-anchor="middle">64px</text>

  <!-- Gutter callout (between col 1 and col 2) -->
  <line x1="151.33" y1="888" x2="175.33" y2="888" stroke="rgba(240,240,243,0.3)" stroke-width="1"/>
  <line x1="151.33" y1="884" x2="151.33" y2="892" stroke="rgba(240,240,243,0.3)" stroke-width="1"/>
  <line x1="175.33" y1="884" x2="175.33" y2="892" stroke="rgba(240,240,243,0.3)" stroke-width="1"/>
  <text x="163.33" y="900" font-family="system-ui,sans-serif" font-size="9" fill="rgba(240,240,243,0.45)" text-anchor="middle">24px</text>

  <!-- Column width callout -->
  <line x1="64" y1="878" x2="151.33" y2="878" stroke="rgba(45,226,210,0.5)" stroke-width="1"/>
  <line x1="64" y1="874" x2="64" y2="882" stroke="rgba(45,226,210,0.5)" stroke-width="1"/>
  <line x1="151.33" y1="874" x2="151.33" y2="882" stroke="rgba(45,226,210,0.5)" stroke-width="1"/>
  <text x="107.66" y="872" font-family="system-ui,sans-serif" font-size="9" fill="rgba(45,226,210,0.7)" text-anchor="middle">87.33px</text>

  <!-- ── Baseline grid (8px) ── -->
  <line x1="64" y1="56"  x2="1376" y2="56"  stroke="rgba(240,240,243,0.05)" stroke-width="1"/>
  <line x1="64" y1="64"  x2="1376" y2="64"  stroke="rgba(240,240,243,0.05)" stroke-width="1"/>
  <line x1="64" y1="72"  x2="1376" y2="72"  stroke="rgba(240,240,243,0.05)" stroke-width="1"/>
  <line x1="64" y1="80"  x2="1376" y2="80"  stroke="rgba(240,240,243,0.05)" stroke-width="1"/>
  <line x1="64" y1="88"  x2="1376" y2="88"  stroke="rgba(240,240,243,0.05)" stroke-width="1"/>
  <line x1="64" y1="96"  x2="1376" y2="96"  stroke="rgba(240,240,243,0.05)" stroke-width="1"/>
  <line x1="64" y1="104" x2="1376" y2="104" stroke="rgba(240,240,243,0.05)" stroke-width="1"/>
  <line x1="64" y1="112" x2="1376" y2="112" stroke="rgba(240,240,243,0.05)" stroke-width="1"/>
  <line x1="64" y1="120" x2="1376" y2="120" stroke="rgba(240,240,243,0.05)" stroke-width="1"/>
  <line x1="64" y1="128" x2="1376" y2="128" stroke="rgba(240,240,243,0.05)" stroke-width="1"/>
  <line x1="64" y1="136" x2="1376" y2="136" stroke="rgba(240,240,243,0.05)" stroke-width="1"/>
  <line x1="64" y1="144" x2="1376" y2="144" stroke="rgba(240,240,243,0.05)" stroke-width="1"/>
  <line x1="64" y1="152" x2="1376" y2="152" stroke="rgba(240,240,243,0.05)" stroke-width="1"/>
  <line x1="64" y1="160" x2="1376" y2="160" stroke="rgba(240,240,243,0.05)" stroke-width="1"/>
  <line x1="64" y1="168" x2="1376" y2="168" stroke="rgba(240,240,243,0.05)" stroke-width="1"/>
  <line x1="64" y1="176" x2="1376" y2="176" stroke="rgba(240,240,243,0.05)" stroke-width="1"/>
  <line x1="64" y1="184" x2="1376" y2="184" stroke="rgba(240,240,243,0.05)" stroke-width="1"/>
  <line x1="64" y1="192" x2="1376" y2="192" stroke="rgba(240,240,243,0.05)" stroke-width="1"/>
  <line x1="64" y1="200" x2="1376" y2="200" stroke="rgba(240,240,243,0.05)" stroke-width="1"/>
  <line x1="64" y1="208" x2="1376" y2="208" stroke="rgba(240,240,243,0.05)" stroke-width="1"/>
  <line x1="64" y1="216" x2="1376" y2="216" stroke="rgba(240,240,243,0.05)" stroke-width="1"/>
  <line x1="64" y1="224" x2="1376" y2="224" stroke="rgba(240,240,243,0.05)" stroke-width="1"/>
  <line x1="64" y1="232" x2="1376" y2="232" stroke="rgba(240,240,243,0.05)" stroke-width="1"/>
  <line x1="64" y1="240" x2="1376" y2="240" stroke="rgba(240,240,243,0.05)" stroke-width="1"/>

  <!-- Baseline label -->
  <text x="1388" y="60" font-family="system-ui,sans-serif" font-size="8" fill="rgba(240,240,243,0.2)" text-anchor="start">8px baseline</text>

  <!-- ═══════════════════════════════════════════════════ -->
  <!-- SECTION 2: Color Tokens                            -->
  <!-- ═══════════════════════════════════════════════════ -->

  <rect y="900" width="1440" height="300" fill="#121214"/>
  <!-- Divider -->
  <line x1="0" y1="900" x2="1440" y2="900" stroke="rgba(255,255,255,0.09)" stroke-width="1"/>

  <!-- Section label -->
  <text x="64" y="936" font-family="'Poppins', system-ui, sans-serif" font-size="11" font-weight="600" letter-spacing="0.12em" fill="rgba(240,240,243,0.35)">COLOR TOKENS</text>

  <!-- ── Swatch row ── -->
  <!-- Background #0B0B0D -->
  <rect x="64"   y="952" width="120" height="80" rx="12" fill="#0B0B0D" stroke="rgba(255,255,255,0.12)" stroke-width="1"/>
  <text x="124"  y="1050" font-family="system-ui,sans-serif" font-size="10" font-weight="600" fill="#F0F0F3" text-anchor="middle">background</text>
  <text x="124"  y="1063" font-family="system-ui,sans-serif" font-size="9" fill="rgba(240,240,243,0.45)" text-anchor="middle">#0B0B0D</text>

  <!-- Surface #121214 -->
  <rect x="208"  y="952" width="120" height="80" rx="12" fill="#121214" stroke="rgba(255,255,255,0.12)" stroke-width="1"/>
  <text x="268"  y="1050" font-family="system-ui,sans-serif" font-size="10" font-weight="600" fill="#F0F0F3" text-anchor="middle">surface</text>
  <text x="268"  y="1063" font-family="system-ui,sans-serif" font-size="9" fill="rgba(240,240,243,0.45)" text-anchor="middle">#121214</text>

  <!-- Surface Raised #1A1A1E -->
  <rect x="352"  y="952" width="120" height="80" rx="12" fill="#1A1A1E" stroke="rgba(255,255,255,0.12)" stroke-width="1"/>
  <text x="412"  y="1050" font-family="system-ui,sans-serif" font-size="10" font-weight="600" fill="#F0F0F3" text-anchor="middle">surface-raised</text>
  <text x="412"  y="1063" font-family="system-ui,sans-serif" font-size="9" fill="rgba(240,240,243,0.45)" text-anchor="middle">#1A1A1E</text>

  <!-- Foreground #F0F0F3 -->
  <rect x="496"  y="952" width="120" height="80" rx="12" fill="#F0F0F3"/>
  <text x="556"  y="1050" font-family="system-ui,sans-serif" font-size="10" font-weight="600" fill="#F0F0F3" text-anchor="middle">foreground</text>
  <text x="556"  y="1063" font-family="system-ui,sans-serif" font-size="9" fill="rgba(240,240,243,0.45)" text-anchor="middle">#F0F0F3</text>

  <!-- Foreground Secondary -->
  <rect x="640"  y="952" width="120" height="80" rx="12" fill="rgba(240,240,243,0.68)" stroke="rgba(255,255,255,0.08)" stroke-width="1"/>
  <text x="700"  y="1050" font-family="system-ui,sans-serif" font-size="10" font-weight="600" fill="#F0F0F3" text-anchor="middle">fg-secondary</text>
  <text x="700"  y="1063" font-family="system-ui,sans-serif" font-size="9" fill="rgba(240,240,243,0.45)" text-anchor="middle">68% white</text>

  <!-- Foreground Tertiary -->
  <rect x="784"  y="952" width="120" height="80" rx="12" fill="rgba(240,240,243,0.42)" stroke="rgba(255,255,255,0.08)" stroke-width="1"/>
  <text x="844"  y="1050" font-family="system-ui,sans-serif" font-size="10" font-weight="600" fill="#F0F0F3" text-anchor="middle">fg-tertiary</text>
  <text x="844"  y="1063" font-family="system-ui,sans-serif" font-size="9" fill="rgba(240,240,243,0.45)" text-anchor="middle">42% white</text>

  <!-- Accent #2DE2D2 -->
  <rect x="928"  y="952" width="120" height="80" rx="12" fill="#2DE2D2"/>
  <text x="988"  y="1050" font-family="system-ui,sans-serif" font-size="10" font-weight="600" fill="#F0F0F3" text-anchor="middle">accent</text>
  <text x="988"  y="1063" font-family="system-ui,sans-serif" font-size="9" fill="rgba(240,240,243,0.45)" text-anchor="middle">#2DE2D2</text>

  <!-- Accent Dim -->
  <rect x="1072" y="952" width="120" height="80" rx="12" fill="rgba(45,226,210,0.10)" stroke="rgba(45,226,210,0.3)" stroke-width="1"/>
  <text x="1132" y="1050" font-family="system-ui,sans-serif" font-size="10" font-weight="600" fill="#F0F0F3" text-anchor="middle">accent-dim</text>
  <text x="1132" y="1063" font-family="system-ui,sans-serif" font-size="9" fill="rgba(240,240,243,0.45)" text-anchor="middle">10% accent</text>

  <!-- Border sample -->
  <rect x="1216" y="952" width="120" height="80" rx="12" fill="transparent" stroke="rgba(255,255,255,0.07)" stroke-width="2"/>
  <text x="1276" y="1050" font-family="system-ui,sans-serif" font-size="10" font-weight="600" fill="#F0F0F3" text-anchor="middle">border</text>
  <text x="1276" y="1063" font-family="system-ui,sans-serif" font-size="9" fill="rgba(240,240,243,0.45)" text-anchor="middle">7% white</text>

  <!-- ── Border Radius row ── -->
  <text x="64" y="1100" font-family="'Poppins', system-ui, sans-serif" font-size="11" font-weight="600" letter-spacing="0.12em" fill="rgba(240,240,243,0.35)">BORDER RADIUS</text>

  <!-- r=0 -->
  <rect x="64"   y="1116" width="80" height="48" rx="0"    fill="rgba(240,240,243,0.05)" stroke="rgba(255,255,255,0.1)" stroke-width="1"/>
  <text x="104"  y="1180" font-family="system-ui,sans-serif" font-size="9" fill="rgba(240,240,243,0.45)" text-anchor="middle">0px</text>

  <!-- r=8 sm -->
  <rect x="168"  y="1116" width="80" height="48" rx="8"    fill="rgba(240,240,243,0.05)" stroke="rgba(255,255,255,0.1)" stroke-width="1"/>
  <text x="208"  y="1180" font-family="system-ui,sans-serif" font-size="9" fill="rgba(240,240,243,0.45)" text-anchor="middle">8px — sm</text>

  <!-- r=10 md -->
  <rect x="272"  y="1116" width="80" height="48" rx="10"   fill="rgba(240,240,243,0.05)" stroke="rgba(255,255,255,0.1)" stroke-width="1"/>
  <text x="312"  y="1180" font-family="system-ui,sans-serif" font-size="9" fill="rgba(240,240,243,0.45)" text-anchor="middle">10px — md</text>

  <!-- r=12 lg / default -->
  <rect x="376"  y="1116" width="80" height="48" rx="12"   fill="rgba(45,226,210,0.08)" stroke="rgba(45,226,210,0.3)" stroke-width="1"/>
  <text x="416"  y="1180" font-family="system-ui,sans-serif" font-size="9" fill="rgba(45,226,210,0.7)" text-anchor="middle">12px — base ✦</text>

  <!-- r=16 xl / card -->
  <rect x="480"  y="1116" width="80" height="48" rx="16"   fill="rgba(240,240,243,0.05)" stroke="rgba(255,255,255,0.1)" stroke-width="1"/>
  <text x="520"  y="1180" font-family="system-ui,sans-serif" font-size="9" fill="rgba(240,240,243,0.45)" text-anchor="middle">16px — xl</text>

  <!-- r=18 card -->
  <rect x="584"  y="1116" width="80" height="48" rx="18"   fill="rgba(240,240,243,0.05)" stroke="rgba(255,255,255,0.1)" stroke-width="1"/>
  <text x="624"  y="1180" font-family="system-ui,sans-serif" font-size="9" fill="rgba(240,240,243,0.45)" text-anchor="middle">18px — card</text>

  <!-- r=20 hero image -->
  <rect x="688"  y="1116" width="80" height="48" rx="20"   fill="rgba(240,240,243,0.05)" stroke="rgba(255,255,255,0.1)" stroke-width="1"/>
  <text x="728"  y="1180" font-family="system-ui,sans-serif" font-size="9" fill="rgba(240,240,243,0.45)" text-anchor="middle">20px — hero</text>

  <!-- r=9999 pill -->
  <rect x="792"  y="1116" width="80" height="48" rx="9999" fill="rgba(240,240,243,0.05)" stroke="rgba(255,255,255,0.1)" stroke-width="1"/>
  <text x="832"  y="1180" font-family="system-ui,sans-serif" font-size="9" fill="rgba(240,240,243,0.45)" text-anchor="middle">pill / full</text>

</svg>
