<svg width="120" height="120" viewBox="0 0 120 120" fill="none" xmlns="http://www.w3.org/2000/svg">
<g clip-path="url(#clip0_369_40159)">
<mask id="mask0_369_40159" style="mask-type:luminance" maskUnits="userSpaceOnUse" x="0" y="0" width="120" height="120">
<path d="M120 0H0V120H120V0Z" fill="white"/>
</mask>
<g mask="url(#mask0_369_40159)">
<mask id="mask1_369_40159" style="mask-type:luminance" maskUnits="userSpaceOnUse" x="0" y="0" width="120" height="120">
<path d="M120 0H0V120H120V0Z" fill="white"/>
</mask>
<g mask="url(#mask1_369_40159)">
<path d="M5 43.1149V81.2494C5 72.072 11.2459 64.0629 20.1493 61.8371L45.4964 55.5004C50.4227 54.2688 54.2694 50.4221 55.5009 45.4958L56.8936 39.9248C57.25 38.4994 58.5308 37.4994 60 37.4994C61.4692 37.4994 62.75 38.4994 63.1064 39.9248L64.4991 45.4958C65.7306 50.4221 69.5773 54.2688 74.5036 55.5004L80.0746 56.893C81.5 57.2494 82.5 58.5301 82.5 59.9994C82.5 61.4686 81.5 62.7494 80.0746 63.1058L100.328 58.0424C108.951 55.8868 115 48.139 115 39.2506C115 32.029 110.983 25.407 104.578 22.0711L63.4793 0.66567C59.618 -1.34541 55 1.45618 55 5.80978V11.0955C55 13.3899 53.4385 15.3898 51.2126 15.9463L20.1493 23.7121C11.2459 25.9379 5 33.9376 5 43.1149Z" fill="url(#paint0_linear_369_40159)"/>
<path d="M115.002 76.8845V38.75C115.002 47.9274 108.756 55.9365 99.8527 58.1624L74.5056 64.4991C69.5792 65.7306 65.7326 69.5773 64.5011 74.5036L63.1083 80.0746C62.752 81.5 61.4712 82.5 60.002 82.5C58.5327 82.5 57.252 81.5 56.8956 80.0746L55.5028 74.5036C54.2713 69.5773 50.4247 65.7306 45.4983 64.4991L39.9273 63.1064C38.502 62.75 37.502 61.4693 37.502 60C37.502 58.5308 38.502 57.25 39.9273 56.8936L19.6741 61.957C11.0512 64.1128 5.00195 71.8604 5.00195 80.7488C5.00195 87.9704 9.01934 94.5924 15.4243 97.9284L56.5227 119.334C60.384 121.345 65.002 118.543 65.002 114.19V108.904C65.002 106.61 66.5635 104.61 68.7893 104.053L99.8527 96.2874C108.756 94.0615 115.002 86.0619 115.002 76.8845Z" fill="url(#paint1_linear_369_40159)"/>
</g>
</g>
</g>
<defs>
<linearGradient id="paint0_linear_369_40159" x1="7.46887" y1="38.7495" x2="88.1355" y2="79.7938" gradientUnits="userSpaceOnUse">
<stop stop-color="#80FAFF"/>
<stop offset="1" stop-color="#0078D4"/>
</linearGradient>
<linearGradient id="paint1_linear_369_40159" x1="103.205" y1="83.1063" x2="33.5111" y2="40.1909" gradientUnits="userSpaceOnUse">
<stop stop-color="#4DD2FF"/>
<stop offset="1" stop-color="#0178D4"/>
</linearGradient>
<clipPath id="clip0_369_40159">
<rect width="120" height="120" fill="white"/>
</clipPath>
</defs>
</svg>
